<svg width="1446" height="788" viewBox="0 0 1446 788" fill="none" xmlns="http://www.w3.org/2000/svg">
  <rect x="0" width="1446" height="788" fill="#2C513C"/>
  <g filter="url(#filter0_d_485_120)">
    <path d="M664 141C666.209 141 668 139.209 668 137C668 134.791 666.209 133 664 133V141ZM5 141H664V133H5V141Z" fill="#5EB867"/>
  </g>
  <g filter="url(#filter1_d_485_120)">
    <path d="M780 163C782.209 162.997 783.998 161.204 783.995 158.995C783.992 156.786 782.199 154.997 779.99 155L780 163ZM5.00003 164L780 163L779.99 155L4.98971 156L5.00003 164Z" fill="white"/>
  </g>
  <path d="M1444 117C1428.35 117 1413.05 112.573 1398.1 106.856C1387.74 102.892 1375.71 95.0912 1367 87.2586C1356.23 77.5652 1351.18 66.4173 1346.22 49.5564C1342.81 43.2103 1338.52 6.07975 1346 1.5" stroke="#5EB867" stroke-opacity="0.9" stroke-width="3" stroke-linecap="round"/>
  <path d="M1444 127C1426.51 127 1409.41 122.188 1392.7 115.974C1381.12 111.665 1364.91 104.046 1356.57 93.8269C1344.53 83.2906 1340.26 72.0188 1334.71 53.6917C1330.91 46.7938 1325.63 6.47799 1334 1.5" stroke="white" stroke-opacity="0.9" stroke-width="3" stroke-linecap="round"/>
  <defs>
    <filter id="filter0_d_485_120" x="1" y="133" width="671" height="16" filterUnits="userSpaceOnUse" color-interpolation-filters="sRGB">
      <feFlood flood-opacity="0" result="BackgroundImageFix"/>
      <feColorMatrix in="SourceAlpha" type="matrix" values="0 0 0 0 0 0 0 0 0 0 0 0 0 0 0 0 0 0 127 0" result="hardAlpha"/>
      <feOffset dy="4"/>
      <feGaussianBlur stdDeviation="2"/>
      <feComposite in2="hardAlpha" operator="out"/>
      <feColorMatrix type="matrix" values="0 0 0 0 0 0 0 0 0 0 0 0 0 0 0 0 0 0 0.25 0"/>
      <feBlend mode="normal" in2="BackgroundImageFix" result="effect1_dropShadow_485_120"/>
      <feBlend mode="normal" in="SourceGraphic" in2="effect1_dropShadow_485_120" result="shape"/>
    </filter>
    <filter id="filter1_d_485_120" x="0.989746" y="155" width="787.005" height="17" filterUnits="userSpaceOnUse" color-interpolation-filters="sRGB">
      <feFlood flood-opacity="0" result="BackgroundImageFix"/>
      <feColorMatrix in="SourceAlpha" type="matrix" values="0 0 0 0 0 0 0 0 0 0 0 0 0 0 0 0 0 0 127 0" result="hardAlpha"/>
      <feOffset dy="4"/>
      <feGaussianBlur stdDeviation="2"/>
      <feComposite in2="hardAlpha" operator="out"/>
      <feColorMatrix type="matrix" values="0 0 0 0 0 0 0 0 0 0 0 0 0 0 0 0 0 0 0.25 0"/>
      <feBlend mode="normal" in2="BackgroundImageFix" result="effect1_dropShadow_485_120"/>
      <feBlend mode="normal" in="SourceGraphic" in2="effect1_dropShadow_485_120" result="shape"/>
    </filter>
  </defs>
</svg>
