<svg width="1440" height="890" viewBox="0 0 1440 890" fill="none" xmlns="http://www.w3.org/2000/svg">
<rect width="1440" height="890" fill="#2C513C"/>
<line y1="137" x2="659" y2="137" stroke="#5EB867" stroke-width="8"/>
<line x1="0.994839" y1="160" x2="775.995" y2="159" stroke="white" stroke-width="8"/>
<path d="M1438.46 117.5C1422.81 117.5 1407.51 113.073 1392.56 107.356C1382.2 103.392 1370.16 95.5912 1361.46 87.7586C1350.69 78.0652 1345.64 66.9173 1340.68 50.0564C1337.27 43.7103 1332.97 6.57975 1340.46 2" stroke="#5EB867" stroke-opacity="0.9" stroke-width="3" stroke-linecap="round"/>
<path d="M1438.46 127.5C1420.97 127.5 1403.87 122.688 1387.16 116.474C1375.58 112.165 1359.37 104.546 1351.03 94.3269C1338.99 83.7906 1334.72 72.5188 1329.17 54.1917C1325.37 47.2938 1320.09 6.97799 1328.46 2" stroke="white" stroke-opacity="0.9" stroke-width="3" stroke-linecap="round"/>
</svg>
